<?xml version="1.0" standalone="no"?>
<!DOCTYPE svg PUBLIC "-//W3C//DTD SVG 20010904//EN"
 "http://www.w3.org/TR/2001/REC-SVG-20010904/DTD/svg10.dtd">
<svg version="1.0" xmlns="http://www.w3.org/2000/svg"
 width="256.000000pt" height="64.000000pt" viewBox="0 0 256.000000 64.000000"
 preserveAspectRatio="xMidYMid meet">

<g transform="translate(0.000000,64.000000) scale(0.100000,-0.100000)"
fill="#000000" stroke="none">
<path d="M74 505 c-9 -21 4 -33 41 -37 l30 -3 3 -93 c3 -90 4 -93 25 -90 21 3
22 9 25 96 l3 92 35 0 c31 0 35 3 32 23 -3 21 -8 22 -96 25 -77 2 -93 0 -98
-13z"/>
<path d="M322 403 l3 -118 75 0 c70 0 75 1 78 23 3 21 0 22 -52 22 -53 0 -56
1 -56 25 0 23 4 25 45 25 38 0 45 3 45 19 0 16 -8 20 -42 23 -35 2 -44 7 -46
25 -3 20 2 22 50 25 45 3 53 6 53 23 0 18 -8 20 -78 23 l-78 3 3 -118z"/>
<path d="M573 501 c-17 -11 -37 -29 -42 -40 -16 -29 -13 -87 5 -122 30 -59
128 -75 169 -28 17 18 18 21 2 36 -15 16 -18 15 -35 0 -59 -54 -134 33 -86
101 16 23 67 31 79 12 8 -13 42 -13 51 1 11 18 -30 50 -72 55 -28 4 -48 -1
-71 -15z"/>
<path d="M780 400 c0 -120 0 -121 23 -118 19 3 22 10 25 51 l3 47 44 0 44 0 3
-47 c3 -44 5 -48 28 -48 l25 0 0 115 0 115 -25 0 c-22 0 -25 -5 -28 -42 l-3
-43 -44 0 -44 0 -3 43 c-2 35 -7 43 -25 45 -23 3 -23 2 -23 -118z"/>
<path d="M1046 503 c12 -2 53 -44 93 -94 39 -49 76 -89 81 -89 6 0 10 29 10
64 0 35 3 78 6 95 6 27 4 31 -14 31 -26 0 -37 -17 -22 -35 6 -7 10 -37 8 -67
l-3 -53 -63 78 c-52 63 -68 77 -90 76 -21 -1 -23 -3 -6 -6z"/>
<path d="M1048 398 c-2 -40 -8 -81 -12 -90 -10 -22 19 -37 37 -19 9 9 9 16 -1
31 -14 23 -16 96 -3 104 5 3 35 -28 67 -69 46 -59 64 -75 84 -74 24 0 24 1 4
9 -12 4 -52 47 -89 94 -38 47 -72 86 -76 86 -4 0 -9 -33 -11 -72z"/>
</g>
</svg>
